<?xml version="1.0" encoding="UTF-8" standalone="no"?>
<!DOCTYPE svg PUBLIC "-//W3C//DTD SVG 1.1//EN" "http://www.w3.org/Graphics/SVG/1.1/DTD/svg11.dtd">
<svg xmlns="http://www.w3.org/2000/svg" version="1.1" width="172" height="76" viewBox="10 61 172 76">
<g stroke-width="2.00" fill="none" stroke-linecap="butt">
<path stroke="#85b2d8" vector-effect="non-scaling-stroke" d="
  M 143.59 119.06
  Q 143.48 117.83 143.05 116.96
  A 0.60 0.60 0.0 0 0 142.25 116.68
  Q 140.18 117.68 137.73 117.62
  A 3.43 3.42 -13.0 0 1 134.80 115.79
  L 134.56 115.36
  A 1.08 1.08 0.0 0 1 135.50 113.75
  L 145.08 113.75
  A 1.00 0.98 -84.2 0 0 146.04 112.95
  C 147.09 107.74 145.42 103.38 139.35 104.07
  Q 131.48 104.96 130.13 112.79
  Q 128.46 122.44 139.97 120.92"
/>
<path stroke="#85b2d8" vector-effect="non-scaling-stroke" d="
  M 54.62 119.96
  Q 54.62 120.04 54.63 120.08
  A 0.88 0.87 81.2 0 0 55.48 120.71
  L 58.60 120.71
  A 0.81 0.80 4.8 0 0 59.38 120.06
  L 63.38 99.06
  A 0.17 0.16 -84.2 0 0 63.22 98.86
  L 58.93 98.86
  A 0.34 0.33 -84.9 0 0 58.60 99.14
  L 57.51 104.81
  A 0.40 0.40 0.0 0 1 56.91 105.09
  Q 52.98 102.81 48.99 105.21
  Q 44.63 107.83 43.99 114.49
  C 43.38 120.90 49.16 122.64 54.10 119.70
  A 0.35 0.35 0.0 0 1 54.62 119.96"
/>
<path stroke="#85b2d8" vector-effect="non-scaling-stroke" d="
  M 32.91 99.64
  A 0.36 0.36 0.0 0 0 32.60 99.82
  L 20.85 120.16
  A 0.36 0.36 0.0 0 0 21.16 120.70
  L 25.34 120.70
  A 0.36 0.36 0.0 0 0 25.65 120.52
  L 28.04 116.38
  A 0.36 0.36 0.0 0 1 28.35 116.20
  L 35.75 116.20
  A 0.36 0.36 0.0 0 1 36.11 116.52
  L 36.57 120.37
  A 0.36 0.36 0.0 0 0 36.93 120.69
  L 41.26 120.69
  A 0.36 0.36 0.0 0 0 41.62 120.29
  L 39.14 99.96
  A 0.36 0.36 0.0 0 0 38.78 99.64
  L 32.91 99.64"
/>
<path stroke="#85b2d8" vector-effect="non-scaling-stroke" d="
  M 103.64 105.03
  Q 103.64 104.91 103.63 104.89
  A 0.85 0.85 0.0 0 0 102.77 104.21
  L 99.55 104.31
  A 0.74 0.74 0.0 0 0 98.85 104.91
  L 95.93 120.23
  A 0.40 0.40 0.0 0 0 96.32 120.71
  L 100.24 120.71
  A 0.56 0.56 0.0 0 0 100.79 120.26
  L 102.59 110.81
  A 3.60 3.59 2.8 0 1 105.79 107.91
  L 106.09 107.88
  A 2.10 2.10 0.0 0 1 108.35 110.36
  L 106.48 120.16
  A 0.47 0.46 -84.3 0 0 106.93 120.72
  L 110.67 120.72
  A 0.64 0.64 0.0 0 0 111.30 120.19
  Q 112.37 114.26 113.06 110.79
  C 114.32 104.40 109.17 102.31 104.30 105.37
  A 0.43 0.43 0.0 0 1 103.64 105.03"
/>
<path stroke="#85b2d8" vector-effect="non-scaling-stroke" d="
  M 70.83 114.46
  L 69.65 104.71
  A 0.51 0.50 86.1 0 0 69.15 104.27
  L 65.07 104.27
  A 0.36 0.35 86.4 0 0 64.72 104.67
  L 66.59 120.09
  A 0.71 0.70 -3.7 0 0 67.29 120.70
  L 71.32 120.70
  A 1.00 1.00 0.0 0 0 72.18 120.21
  L 81.29 104.41
  A 0.09 0.08 -73.9 0 0 81.22 104.28
  L 76.40 104.28
  A 0.51 0.51 0.0 0 0 75.94 104.57
  L 71.02 114.49
  A 0.10 0.10 0.0 0 1 70.83 114.46"
/>
<path stroke="#85b2d8" vector-effect="non-scaling-stroke" d="
  M 83.59 108.29
  Q 86.15 107.42 88.79 107.73
  A 1.76 1.76 0.0 0 1 90.28 109.05
  L 90.31 109.15
  A 0.95 0.95 0.0 0 1 89.36 110.33
  C 85.11 110.19 80.07 111.35 78.87 115.94
  C 77.32 121.83 84.55 121.80 87.90 119.85
  Q 88.52 119.49 88.53 119.53
  Q 88.78 120.08 88.77 120.15
  A 0.50 0.50 0.0 0 0 89.27 120.72
  L 92.48 120.70
  A 0.67 0.66 4.1 0 0 93.13 120.15
  L 95.16 108.82
  A 1.21 1.19 44.4 0 0 95.15 108.36
  C 93.83 102.87 87.46 103.64 83.43 104.96
  A 0.92 0.92 0.0 0 0 82.80 105.83
  L 82.80 107.72
  A 0.60 0.60 0.0 0 0 83.59 108.29"
/>
<path stroke="#85b2d8" vector-effect="non-scaling-stroke" d="
  M 126.64 116.79
  C 123.52 118.41 118.43 117.55 119.82 112.88
  Q 121.85 106.10 129.24 108.34
  A 0.41 0.41 0.0 0 0 129.75 108.03
  L 130.28 105.23
  A 0.38 0.38 0.0 0 0 130.03 104.80
  C 123.04 102.52 116.03 106.35 114.90 113.75
  C 113.70 121.59 121.81 122.13 127.10 119.98
  A 0.93 0.92 -14.9 0 0 127.67 119.01
  L 127.46 117.22
  A 0.57 0.56 -17.2 0 0 126.64 116.79"
/>
<path stroke="#85b2d8" vector-effect="non-scaling-stroke" d="
  M 54.6950 107.6518
  A 5.25 3.49 -66.6 0 0 49.4070 111.0840
  A 5.25 3.49 -66.6 0 0 50.5250 117.2882
  A 5.25 3.49 -66.6 0 0 55.8130 113.8560
  A 5.25 3.49 -66.6 0 0 54.6950 107.6518"
/>
<path stroke="#85b2d8" vector-effect="non-scaling-stroke" d="
  M 30.96 112.39
  L 35.17 112.39
  A 0.50 0.50 0.0 0 0 35.67 111.83
  L 34.79 104.61
  A 0.30 0.30 0.0 0 0 34.22 104.51
  L 30.60 111.81
  A 0.40 0.40 0.0 0 0 30.96 112.39"
/>
<path stroke="#85b2d8" vector-effect="non-scaling-stroke" d="
  M 135.73 110.82
  L 141.47 110.71
  A 0.70 0.70 0.0 0 0 142.14 109.89
  C 141.38 105.55 136.71 107.56 135.35 110.21
  A 0.42 0.42 0.0 0 0 135.73 110.82"
/>
<path stroke="#85b2d8" vector-effect="non-scaling-stroke" d="
  M 88.95 113.11
  C 86.92 113.14 83.98 113.52 83.53 115.90
  A 1.57 1.38 -80.7 0 0 84.67 117.72
  Q 89.02 118.29 89.45 113.65
  A 0.50 0.49 -87.9 0 0 88.95 113.11"
/>
</g>
<path fill="#0b65b0" d="
  M 130.97 64.98
  A 0.17 0.17 0.0 0 1 130.82 64.80
  L 130.82 64.79
  A 0.11 0.10 -86.8 0 1 130.92 64.69
  Q 147.66 64.43 162.02 68.41
  Q 170.68 70.81 176.23 76.19
  C 183.92 83.63 182.70 95.58 177.35 104.13
  C 167.31 120.16 146.57 130.07 128.42 133.96
  C 111.58 137.57 95.51 135.91 80.26 129.06
  A 0.18 0.17 62.4 0 1 80.36 128.73
  Q 107.33 134.21 133.49 124.98
  C 146.60 120.36 160.35 111.48 167.32 99.42
  C 177.94 81.06 161.39 71.59 146.38 67.87
  Q 138.44 65.90 130.97 64.98
  Z"
/>
<path fill="#0b65b0" d="
  M 35.89 76.22
  L 27.62 91.43
  A 1.10 1.08 -85.2 0 1 27.03 91.94
  Q 25.69 92.40 24.78 91.99
  A 1.15 1.14 -82.9 0 1 24.11 91.12
  L 21.46 75.78
  A 0.04 0.04 0.0 0 0 21.38 75.78
  L 18.32 91.81
  A 0.35 0.34 -85.0 0 1 17.98 92.10
  L 14.17 92.10
  A 0.41 0.40 -84.6 0 1 13.78 91.62
  L 17.78 70.65
  A 0.60 0.60 0.0 0 1 18.37 70.16
  L 25.21 70.16
  A 0.77 0.77 0.0 0 1 25.97 70.80
  L 28.15 83.41
  A 0.07 0.07 0.0 0 0 28.28 83.43
  L 35.77 70.46
  A 0.62 0.61 -74.5 0 1 36.30 70.15
  L 42.20 70.15
  A 0.28 0.28 0.0 0 1 42.47 70.48
  L 38.43 91.69
  A 0.51 0.50 -84.4 0 1 37.94 92.10
  L 33.51 92.10
  A 0.33 0.33 0.0 0 1 33.19 91.71
  L 36.13 76.31
  A 0.13 0.13 0.0 0 0 35.89 76.22
  Z"
/>
<path fill="#0b65b0" d="
  M 48.50 70.16
  Q 50.32 70.16 50.78 70.05
  A 0.40 0.40 0.0 0 1 51.27 70.51
  L 50.70 73.47
  A 0.82 0.81 4.5 0 1 49.91 74.14
  Q 49.62 74.15 48.48 74.15
  Q 46.65 74.16 46.19 74.26
  A 0.40 0.40 0.0 0 1 45.71 73.80
  L 46.28 70.84
  A 0.82 0.81 4.5 0 1 47.07 70.17
  Q 47.35 70.17 48.50 70.16
  Z"
/>
<path fill="#0b65b0" d="
  M 55.30 70.16
  L 59.83 70.16
  A 0.33 0.33 0.0 0 1 60.16 70.55
  L 56.10 91.80
  A 0.33 0.33 0.0 0 1 55.78 92.07
  L 51.25 92.07
  A 0.33 0.33 0.0 0 1 50.92 91.68
  L 54.98 70.43
  A 0.33 0.33 0.0 0 1 55.30 70.16
  Z"
/>
<path fill="#0b65b0" d="
  M 64.19 70.14
  L 68.55 70.14
  A 0.38 0.38 0.0 0 1 68.92 70.59
  L 64.89 91.74
  A 0.38 0.38 0.0 0 1 64.52 92.05
  L 60.16 92.05
  A 0.38 0.38 0.0 0 1 59.79 91.60
  L 63.82 70.45
  A 0.38 0.38 0.0 0 1 64.19 70.14
  Z"
/>
<path fill="#0b65b0" d="
  M 111.25 92.09
  L 106.74 92.09
  A 0.53 0.53 0.0 0 1 106.22 91.46
  L 110.20 70.58
  A 0.48 0.48 0.0 0 1 110.67 70.20
  Q 119.37 70.07 122.73 70.32
  C 126.51 70.61 128.05 73.12 127.43 76.84
  C 126.26 83.87 120.21 84.00 113.99 83.93
  A 0.66 0.65 5.7 0 0 113.33 84.46
  L 111.99 91.48
  A 0.75 0.74 5.0 0 1 111.25 92.09
  Z
  M 115.00 80.24
  Q 119.43 79.95 120.02 79.55
  Q 122.93 77.57 121.47 74.37
  A 1.09 1.08 -12.2 0 0 120.48 73.74
  L 116.01 73.74
  A 0.75 0.74 -84.3 0 0 115.28 74.34
  L 114.31 79.45
  A 0.67 0.66 -86.6 0 0 115.00 80.24
  Z"
/>
<path fill="#0b65b0" d="
  M 84.45 88.59
  L 84.07 90.61
  A 1.46 1.44 -5.9 0 1 83.21 91.66
  C 78.46 93.68 69.15 94.13 68.64 86.95
  C 68.09 79.31 74.48 74.18 81.95 75.76
  A 5.40 5.39 1.1 0 1 86.15 80.12
  L 86.46 81.91
  A 2.58 2.57 -4.9 0 1 83.92 84.92
  L 74.05 84.92
  A 0.57 0.56 -87.2 0 0 73.49 85.43
  C 72.98 91.21 80.20 89.71 83.79 88.07
  A 0.47 0.47 0.0 0 1 84.45 88.59
  Z
  M 74.88 82.06
  L 80.95 82.06
  A 0.74 0.74 0.0 0 0 81.68 81.21
  C 80.96 76.61 75.98 78.63 74.49 81.41
  A 0.44 0.44 0.0 0 0 74.88 82.06
  Z"
/>
<path fill="#0b65b0" d="
  M 91.52 92.11
  L 87.44 92.13
  A 0.49 0.48 5.1 0 1 86.96 91.56
  L 89.73 76.67
  A 0.92 0.91 5.0 0 1 90.62 75.93
  L 94.28 75.91
  A 0.57 0.56 11.6 0 1 94.81 76.70
  Q 94.44 77.53 94.48 77.95
  A 0.39 0.38 -29.7 0 0 95.17 78.14
  Q 97.24 75.42 100.24 75.57
  A 0.47 0.47 0.0 0 1 100.68 76.13
  L 100.14 79.09
  A 0.67 0.66 -79.3 0 1 99.37 79.62
  Q 94.76 78.85 93.52 84.25
  Q 92.63 88.15 92.15 91.57
  A 0.64 0.63 3.9 0 1 91.52 92.11
  Z"
/>
<path fill="#0b65b0" d="
  M 126.38 91.50
  L 129.22 76.62
  A 0.92 0.91 5.3 0 1 130.12 75.88
  L 133.78 75.88
  A 0.57 0.56 11.9 0 1 134.30 76.67
  Q 133.93 77.50 133.97 77.92
  A 0.39 0.38 -29.4 0 0 134.66 78.11
  Q 136.74 75.40 139.74 75.57
  A 0.47 0.47 0.0 0 1 140.18 76.13
  L 139.62 79.09
  A 0.67 0.66 -79.0 0 1 138.85 79.62
  Q 134.24 78.82 132.98 84.22
  Q 132.07 88.12 131.57 91.53
  A 0.64 0.63 4.2 0 1 130.94 92.07
  L 126.86 92.07
  A 0.49 0.48 5.4 0 1 126.38 91.50
  Z"
/>
<path fill="#0b65b0" d="
  M 155.2538 77.5781
  A 9.85 8.14 -42.4 0 1 153.4688 90.2310
  A 9.85 8.14 -42.4 0 1 140.7062 90.8619
  A 9.85 8.14 -42.4 0 1 142.4912 78.2090
  A 9.85 8.14 -42.4 0 1 155.2538 77.5781
  Z
  M 149.7496 78.7503
  A 5.79 3.64 -72.1 0 0 144.5062 83.1412
  A 5.79 3.64 -72.1 0 0 146.1904 89.7697
  A 5.79 3.64 -72.1 0 0 151.4338 85.3788
  A 5.79 3.64 -72.1 0 0 149.7496 78.7503
  Z"
/>
<path fill="#0b65b0" d="
  M 46.86 92.07
  L 42.48 92.07
  A 0.36 0.36 0.0 0 1 42.12 91.64
  L 44.99 76.57
  A 0.36 0.36 0.0 0 1 45.35 76.28
  L 49.73 76.28
  A 0.36 0.36 0.0 0 1 50.09 76.71
  L 47.22 91.78
  A 0.36 0.36 0.0 0 1 46.86 92.07
  Z"
/>
<path fill="#0b65b0" d="
  M 143.59 119.06
  Q 143.48 117.83 143.05 116.96
  A 0.60 0.60 0.0 0 0 142.25 116.68
  Q 140.18 117.68 137.73 117.62
  A 3.43 3.42 -13.0 0 1 134.80 115.79
  L 134.56 115.36
  A 1.08 1.08 0.0 0 1 135.50 113.75
  L 145.08 113.75
  A 1.00 0.98 -84.2 0 0 146.04 112.95
  C 147.09 107.74 145.42 103.38 139.35 104.07
  Q 131.48 104.96 130.13 112.79
  Q 128.46 122.44 139.97 120.92
  Q 133.23 123.96 126.35 125.37
  Q 121.12 126.44 112.09 126.42
  Q 73.75 126.34 17.83 126.38
  A 1.79 1.69 54.9 0 1 17.15 126.24
  Q 14.12 124.92 14.95 121.45
  Q 18.73 105.57 20.32 99.32
  Q 20.96 96.80 24.00 95.81
  A 0.45 0.33 27.3 0 1 24.13 95.79
  L 166.58 95.77
  A 0.32 0.32 0.0 0 1 166.87 96.22
  C 162.60 105.86 152.66 114.03 143.59 119.06
  Z
  M 54.62 119.96
  Q 54.62 120.04 54.63 120.08
  A 0.88 0.87 81.2 0 0 55.48 120.71
  L 58.60 120.71
  A 0.81 0.80 4.8 0 0 59.38 120.06
  L 63.38 99.06
  A 0.17 0.16 -84.2 0 0 63.22 98.86
  L 58.93 98.86
  A 0.34 0.33 -84.9 0 0 58.60 99.14
  L 57.51 104.81
  A 0.40 0.40 0.0 0 1 56.91 105.09
  Q 52.98 102.81 48.99 105.21
  Q 44.63 107.83 43.99 114.49
  C 43.38 120.90 49.16 122.64 54.10 119.70
  A 0.35 0.35 0.0 0 1 54.62 119.96
  Z
  M 32.91 99.64
  A 0.36 0.36 0.0 0 0 32.60 99.82
  L 20.85 120.16
  A 0.36 0.36 0.0 0 0 21.16 120.70
  L 25.34 120.70
  A 0.36 0.36 0.0 0 0 25.65 120.52
  L 28.04 116.38
  A 0.36 0.36 0.0 0 1 28.35 116.20
  L 35.75 116.20
  A 0.36 0.36 0.0 0 1 36.11 116.52
  L 36.57 120.37
  A 0.36 0.36 0.0 0 0 36.93 120.69
  L 41.26 120.69
  A 0.36 0.36 0.0 0 0 41.62 120.29
  L 39.14 99.96
  A 0.36 0.36 0.0 0 0 38.78 99.64
  L 32.91 99.64
  Z
  M 103.64 105.03
  Q 103.64 104.91 103.63 104.89
  A 0.85 0.85 0.0 0 0 102.77 104.21
  L 99.55 104.31
  A 0.74 0.74 0.0 0 0 98.85 104.91
  L 95.93 120.23
  A 0.40 0.40 0.0 0 0 96.32 120.71
  L 100.24 120.71
  A 0.56 0.56 0.0 0 0 100.79 120.26
  L 102.59 110.81
  A 3.60 3.59 2.8 0 1 105.79 107.91
  L 106.09 107.88
  A 2.10 2.10 0.0 0 1 108.35 110.36
  L 106.48 120.16
  A 0.47 0.46 -84.3 0 0 106.93 120.72
  L 110.67 120.72
  A 0.64 0.64 0.0 0 0 111.30 120.19
  Q 112.37 114.26 113.06 110.79
  C 114.32 104.40 109.17 102.31 104.30 105.37
  A 0.43 0.43 0.0 0 1 103.64 105.03
  Z
  M 70.83 114.46
  L 69.65 104.71
  A 0.51 0.50 86.1 0 0 69.15 104.27
  L 65.07 104.27
  A 0.36 0.35 86.4 0 0 64.72 104.67
  L 66.59 120.09
  A 0.71 0.70 -3.7 0 0 67.29 120.70
  L 71.32 120.70
  A 1.00 1.00 0.0 0 0 72.18 120.21
  L 81.29 104.41
  A 0.09 0.08 -73.9 0 0 81.22 104.28
  L 76.40 104.28
  A 0.51 0.51 0.0 0 0 75.94 104.57
  L 71.02 114.49
  A 0.10 0.10 0.0 0 1 70.83 114.46
  Z
  M 83.59 108.29
  Q 86.15 107.42 88.79 107.73
  A 1.76 1.76 0.0 0 1 90.28 109.05
  L 90.31 109.15
  A 0.95 0.95 0.0 0 1 89.36 110.33
  C 85.11 110.19 80.07 111.35 78.87 115.94
  C 77.32 121.83 84.55 121.80 87.90 119.85
  Q 88.52 119.49 88.53 119.53
  Q 88.78 120.08 88.77 120.15
  A 0.50 0.50 0.0 0 0 89.27 120.72
  L 92.48 120.70
  A 0.67 0.66 4.1 0 0 93.13 120.15
  L 95.16 108.82
  A 1.21 1.19 44.4 0 0 95.15 108.36
  C 93.83 102.87 87.46 103.64 83.43 104.96
  A 0.92 0.92 0.0 0 0 82.80 105.83
  L 82.80 107.72
  A 0.60 0.60 0.0 0 0 83.59 108.29
  Z
  M 126.64 116.79
  C 123.52 118.41 118.43 117.55 119.82 112.88
  Q 121.85 106.10 129.24 108.34
  A 0.41 0.41 0.0 0 0 129.75 108.03
  L 130.28 105.23
  A 0.38 0.38 0.0 0 0 130.03 104.80
  C 123.04 102.52 116.03 106.35 114.90 113.75
  C 113.70 121.59 121.81 122.13 127.10 119.98
  A 0.93 0.92 -14.9 0 0 127.67 119.01
  L 127.46 117.22
  A 0.57 0.56 -17.2 0 0 126.64 116.79
  Z"
/>
<path fill="#fefeff" d="
  M 54.10 119.70
  C 49.16 122.64 43.38 120.90 43.99 114.49
  Q 44.63 107.83 48.99 105.21
  Q 52.98 102.81 56.91 105.09
  A 0.40 0.40 0.0 0 0 57.51 104.81
  L 58.60 99.14
  A 0.34 0.33 -84.9 0 1 58.93 98.86
  L 63.22 98.86
  A 0.17 0.16 -84.2 0 1 63.38 99.06
  L 59.38 120.06
  A 0.81 0.80 4.8 0 1 58.60 120.71
  L 55.48 120.71
  A 0.88 0.87 81.2 0 1 54.63 120.08
  Q 54.62 120.04 54.62 119.96
  A 0.35 0.35 0.0 0 0 54.10 119.70
  Z
  M 54.6950 107.6518
  A 5.25 3.49 -66.6 0 0 49.4070 111.0840
  A 5.25 3.49 -66.6 0 0 50.5250 117.2882
  A 5.25 3.49 -66.6 0 0 55.8130 113.8560
  A 5.25 3.49 -66.6 0 0 54.6950 107.6518
  Z"
/>
<path fill="#fefeff" d="
  M 32.91 99.64
  L 38.78 99.64
  A 0.36 0.36 0.0 0 1 39.14 99.96
  L 41.62 120.29
  A 0.36 0.36 0.0 0 1 41.26 120.69
  L 36.93 120.69
  A 0.36 0.36 0.0 0 1 36.57 120.37
  L 36.11 116.52
  A 0.36 0.36 0.0 0 0 35.75 116.20
  L 28.35 116.20
  A 0.36 0.36 0.0 0 0 28.04 116.38
  L 25.65 120.52
  A 0.36 0.36 0.0 0 1 25.34 120.70
  L 21.16 120.70
  A 0.36 0.36 0.0 0 1 20.85 120.16
  L 32.60 99.82
  A 0.36 0.36 0.0 0 1 32.91 99.64
  Z
  M 30.96 112.39
  L 35.17 112.39
  A 0.50 0.50 0.0 0 0 35.67 111.83
  L 34.79 104.61
  A 0.30 0.30 0.0 0 0 34.22 104.51
  L 30.60 111.81
  A 0.40 0.40 0.0 0 0 30.96 112.39
  Z"
/>
<path fill="#fefeff" d="
  M 104.30 105.37
  C 109.17 102.31 114.32 104.40 113.06 110.79
  Q 112.37 114.26 111.30 120.19
  A 0.64 0.64 0.0 0 1 110.67 120.72
  L 106.93 120.72
  A 0.47 0.46 -84.3 0 1 106.48 120.16
  L 108.35 110.36
  A 2.10 2.10 0.0 0 0 106.09 107.88
  L 105.79 107.91
  A 3.60 3.59 2.8 0 0 102.59 110.81
  L 100.79 120.26
  A 0.56 0.56 0.0 0 1 100.24 120.71
  L 96.32 120.71
  A 0.40 0.40 0.0 0 1 95.93 120.23
  L 98.85 104.91
  A 0.74 0.74 0.0 0 1 99.55 104.31
  L 102.77 104.21
  A 0.85 0.85 0.0 0 1 103.63 104.89
  Q 103.64 104.91 103.64 105.03
  A 0.43 0.43 0.0 0 0 104.30 105.37
  Z"
/>
<path fill="#fefeff" d="
  M 143.59 119.06
  Q 141.71 120.40 139.97 120.92
  Q 128.46 122.44 130.13 112.79
  Q 131.48 104.96 139.35 104.07
  C 145.42 103.38 147.09 107.74 146.04 112.95
  A 1.00 0.98 -84.2 0 1 145.08 113.75
  L 135.50 113.75
  A 1.08 1.08 0.0 0 0 134.56 115.36
  L 134.80 115.79
  A 3.43 3.42 -13.0 0 0 137.73 117.62
  Q 140.18 117.68 142.25 116.68
  A 0.60 0.60 0.0 0 1 143.05 116.96
  Q 143.48 117.83 143.59 119.06
  Z
  M 135.73 110.82
  L 141.47 110.71
  A 0.70 0.70 0.0 0 0 142.14 109.89
  C 141.38 105.55 136.71 107.56 135.35 110.21
  A 0.42 0.42 0.0 0 0 135.73 110.82
  Z"
/>
<path fill="#0b65b0" d="
  M 30.60 111.81
  L 34.22 104.51
  A 0.30 0.30 0.0 0 1 34.79 104.61
  L 35.67 111.83
  A 0.50 0.50 0.0 0 1 35.17 112.39
  L 30.96 112.39
  A 0.40 0.40 0.0 0 1 30.60 111.81
  Z"
/>
<path fill="#fefeff" d="
  M 70.83 114.46
  A 0.10 0.10 0.0 0 0 71.02 114.49
  L 75.94 104.57
  A 0.51 0.51 0.0 0 1 76.40 104.28
  L 81.22 104.28
  A 0.09 0.08 -73.9 0 1 81.29 104.41
  L 72.18 120.21
  A 1.00 1.00 0.0 0 1 71.32 120.70
  L 67.29 120.70
  A 0.71 0.70 -3.7 0 1 66.59 120.09
  L 64.72 104.67
  A 0.36 0.35 86.4 0 1 65.07 104.27
  L 69.15 104.27
  A 0.51 0.50 86.1 0 1 69.65 104.71
  L 70.83 114.46
  Z"
/>
<path fill="#fefeff" d="
  M 83.59 108.29
  A 0.60 0.60 0.0 0 1 82.80 107.72
  L 82.80 105.83
  A 0.92 0.92 0.0 0 1 83.43 104.96
  C 87.46 103.64 93.83 102.87 95.15 108.36
  A 1.21 1.19 44.4 0 1 95.16 108.82
  L 93.13 120.15
  A 0.67 0.66 4.1 0 1 92.48 120.70
  L 89.27 120.72
  A 0.50 0.50 0.0 0 1 88.77 120.15
  Q 88.78 120.08 88.53 119.53
  Q 88.52 119.49 87.90 119.85
  C 84.55 121.80 77.32 121.83 78.87 115.94
  C 80.07 111.35 85.11 110.19 89.36 110.33
  A 0.95 0.95 0.0 0 0 90.31 109.15
  L 90.28 109.05
  A 1.76 1.76 0.0 0 0 88.79 107.73
  Q 86.15 107.42 83.59 108.29
  Z
  M 88.95 113.11
  C 86.92 113.14 83.98 113.52 83.53 115.90
  A 1.57 1.38 -80.7 0 0 84.67 117.72
  Q 89.02 118.29 89.45 113.65
  A 0.50 0.49 -87.9 0 0 88.95 113.11
  Z"
/>
<path fill="#fefeff" d="
  M 126.64 116.79
  A 0.57 0.56 -17.2 0 1 127.46 117.22
  L 127.67 119.01
  A 0.93 0.92 -14.9 0 1 127.10 119.98
  C 121.81 122.13 113.70 121.59 114.90 113.75
  C 116.03 106.35 123.04 102.52 130.03 104.80
  A 0.38 0.38 0.0 0 1 130.28 105.23
  L 129.75 108.03
  A 0.41 0.41 0.0 0 1 129.24 108.34
  Q 121.85 106.10 119.82 112.88
  C 118.43 117.55 123.52 118.41 126.64 116.79
  Z"
/>
<path fill="#0b65b0" d="
  M 135.73 110.82
  A 0.42 0.42 0.0 0 1 135.35 110.21
  C 136.71 107.56 141.38 105.55 142.14 109.89
  A 0.70 0.70 0.0 0 1 141.47 110.71
  L 135.73 110.82
  Z"
/>
<ellipse fill="#0b65b0" cx="0.00" cy="0.00" transform="translate(52.61,112.47) rotate(-66.6)" rx="5.25" ry="3.49"/>
<path fill="#0b65b0" d="
  M 88.95 113.11
  A 0.50 0.49 -87.9 0 1 89.45 113.65
  Q 89.02 118.29 84.67 117.72
  A 1.57 1.38 -80.7 0 1 83.53 115.90
  C 83.98 113.52 86.92 113.14 88.95 113.11
  Z"
/>
</svg>
